<svg xmlns="http://www.w3.org/2000/svg" width="840" height="520" viewBox="0 0 840 520" role="img" aria-label="Signal monitoring illustration">
  <rect width="840" height="520" fill="#f5f7f9" />
  <rect x="64" y="72" width="712" height="376" rx="24" fill="#ffffff" stroke="#e0e3e7" stroke-width="2" />
  <g stroke="#d2d7de" stroke-width="2">
    <line x1="120" y1="160" x2="720" y2="160" />
    <line x1="120" y1="230" x2="720" y2="230" />
    <line x1="120" y1="300" x2="720" y2="300" />
    <line x1="120" y1="370" x2="720" y2="370" />
  </g>
  <g fill="none" stroke="#1a73e8" stroke-width="4">
    <path d="M120 300 C160 260, 210 260, 250 300 S340 340, 390 280 S480 220, 540 260 S630 360, 720 310" />
  </g>
  <g fill="#1a73e8">
    <circle cx="250" cy="300" r="6" />
    <circle cx="390" cy="280" r="6" />
    <circle cx="540" cy="260" r="6" />
  </g>
  <rect x="120" y="110" width="160" height="18" rx="9" fill="#e6edf7" />
  <rect x="300" y="110" width="120" height="18" rx="9" fill="#e6edf7" />
  <rect x="440" y="110" width="160" height="18" rx="9" fill="#e6edf7" />
</svg>
